<?xml version="1.0" encoding="utf-8"?>
<!-- Generator: Adobe Illustrator 16.0.0, SVG Export Plug-In . SVG Version: 6.00 Build 0)  -->
<!DOCTYPE svg PUBLIC "-//W3C//DTD SVG 1.1//EN" "http://www.w3.org/Graphics/SVG/1.1/DTD/svg11.dtd">
<svg version="1.1" xmlns="http://www.w3.org/2000/svg" xmlns:xlink="http://www.w3.org/1999/xlink" x="0px" y="0px" width="1280px"
	 height="800px" viewBox="0 0 1280 800" enable-background="new 0 0 1280 800" xml:space="preserve">
<g id="Layer_1">
	<g>
		<path fill-rule="evenodd" clip-rule="evenodd" d="M711.091,233.883c-6.576-0.093-13.163-1.719-19.836-1.851
			c-7.783-0.155-14.307,1.825-21.181,4.213c-11.666,7.472-23.458,13.26-34.442,20.295c-11.186,7.164-21.829,15.28-32.132,23.686
			c-10.266,8.375-19.816,17.627-29.68,26.495c1.579,0.131,2.589-0.407,3.444-1.129c9.009-7.615,17.736-15.592,27.05-22.813
			c12.063-9.353,24.342-18.476,37.006-26.985c7.48-5.025,15.496-9.832,23.963-12.678c13.65-4.589,27.717-8.213,42.541-6.392
			c7.695,0.945,10.635,6.045,7.022,12.969c-1.991,3.818-4.206,7.728-5.108,11.861c-1.451,6.65-5.217,11.673-9.105,16.933
			c-13.521,18.284-29.424,34.277-46.666,48.951c-13.664,11.629-27.574,22.984-41.664,34.093
			c-7.047,5.555-14.742,10.287-23.226,16.138c0.989-2.799,1.357-4.256,2-5.581c2.161-4.456,4.514-8.82,6.619-13.302
			c3.668-7.812,7.172-15.701,10.821-23.522c1.035-2.218,2.591-4.214,3.459-6.483c3.49-9.119,6.633-18.373,10.227-27.449
			c4.345-10.973,9.017-21.816,13.546-32.715l-1.088-0.611c-1.48,2.124-3.356,4.074-4.374,6.4
			c-4.854,11.104-9.415,22.336-14.194,33.474c-7.864,18.326-15.804,36.619-23.756,54.906c-0.522,1.2-1.506,2.189-2.126,3.356
			c-2.484,4.677-5.092,9.301-7.319,14.1c-5.452,11.751-10.495,23.697-16.128,35.359c-4.627,9.578-9.887,18.85-14.811,28.285
			c-0.747,1.432-1.194,3.02-1.78,4.536c0.458,0.188,0.917,0.378,1.375,0.566c3.928-7.035,7.99-14,11.747-21.125
			c3.927-7.448,7.577-15.044,11.316-22.591c2.555-5.158,4.777-10.505,7.673-15.46c2.019-3.455,4.417-7.055,7.526-9.444
			c16.222-12.469,33.348-23.834,48.964-37.001c16.879-14.231,33.018-29.467,48.371-45.336c9.982-10.319,19.645-21.438,25.46-34.923
			c3.614-8.382,10.477-16.838,3.757-26.449C714.584,235.756,712.832,234.798,711.091,233.883z"/>
		<path fill-rule="evenodd" clip-rule="evenodd" d="M321.654,266.162c0.669-2.057-0.813-4.813-1.3-7.245
			c-2.258,1.011-4.979,1.523-6.698,3.116c-9.895,9.172-18.188,19.603-24.248,31.771c-2.065,4.146-5.077,7.813-7.288,11.898
			c-7.279,13.449-14.516,26.924-21.519,40.518c-4.491,8.718-9.498,17.346-12.562,26.583c-4.482,13.512-8.093,27.407-10.75,41.391
			c-1.325,6.975-0.187,14.57,0.761,21.764c0.555,4.218,2.838,8.582,7.854,9.318c6.04,0.887,12.089-0.639,16.101-5.088
			c8.333-9.24,16.024-19.068,23.789-28.807c2.979-3.736,5.438-7.888,8.135-11.851c-0.235,2.349-1.163,4.294-1.89,6.312
			c-3.209,8.902-7.261,17.653-6.219,27.483c0.634,5.983,5.565,8.018,10.308,4.149c2.681-2.187,5.414-4.707,7.083-7.664
			c6.46-11.439,12.415-23.164,18.738-34.683c3.308-6.025,6.991-11.843,10.504-17.755c-1.899,6.997-4.451,13.483-6.21,20.178
			c-1.966,7.485,8.474,20.169,18.751,15.398c2.181-1.012,3.861-3.107,5.915-4.883c1.117-1.962,2.079-4.017,3.324-5.9
			c0.331-2.827,2.204-5.081,5.73-6.726c1.002-0.467,3.525,0.277,4.058,1.203c2.626,4.563,5.35,6.254,9.927,3.714
			c3.423-1.898,6.092-5.35,8.736-8.42c7.228-8.392,5.187-9.65,16.147-2.947c0.215,0.132,0.243,0.569,0.358,0.864
			c-0.414-0.16-0.829-0.319-1.243-0.479c-2.899,7.132-6.412,14.102-8.378,21.483c-0.726,2.724,1.303,7.586,3.665,9.383
			c3.142,2.389,7.669,2.638,11.488-0.705c5.463-4.783,11.218-9.232,17.503-14.359c0.226,3.222,0.282,5.994,0.649,8.726
			c0.417,3.106,0.834,6.268,1.82,9.215c0.414,1.237,2.435,2.948,3.473,2.79c4.55-0.691,9.607-1.006,13.36-3.294
			c5.872-3.579,11.484-8.069,16.04-13.21c7.238-8.167,13.474-17.219,20.24-25.813c1.097-1.394,2.742-2.356,4.449-3.781
			c1.337,7.391,3.407,8.182,8.665,4.126c1.583-1.22,2.929-2.987,4.705-3.668c4.25-1.629,8.627-3.22,13.09-3.852
			c1.593-0.226,4.227,2.013,5.167,3.776c0.638,1.195-0.381,3.891-1.47,5.278c-3.591,4.573-7.765,8.691-11.324,13.286
			c-7.12,9.192-14.176,18.449-20.849,27.968c-2.533,3.611-4.098,7.952-5.748,12.102c-0.451,1.135,0.39,2.782,0.637,4.194
			c1.625-0.333,3.813-0.108,4.781-1.089c6.043-6.12,12.232-12.179,17.556-18.904c5.214-6.586,11.554-12.789,13.557-21.268
			c1.864-7.889,3.286-15.676,11.012-20.242c0.408-0.241,0.7-0.712,0.99-1.116c5.682-7.926,12.748-14.331,21.11-19.333
			c0.978-0.585,1.839-1.365,2.755-2.055c-12.284,3.515-19.272,14.207-29.633,21.22c-0.369-1.547-0.387-2.751-0.931-3.629
			c-0.711-1.147-1.754-2.802-2.799-2.917c-8.294-0.91-15.736,1.252-22.21,6.702c-1.845,1.553-4.104,2.613-6.174,3.898
			c-0.313-0.398-0.627-0.797-0.941-1.196c2.407-4.822,4.814-9.644,7.221-14.466l-1.837-1.384c-1.51,1.203-3.27,2.194-4.49,3.642
			c-11.136,13.201-22.038,26.602-33.335,39.662c-3.21,3.711-7.298,6.762-11.325,9.638c-4.613,3.294-11.069,1.882-13.631-2.498
			c-4.278-7.315-2.578-16.176,2.916-22.565c7.568-8.802,15.125-17.784,21.342-27.544c14.877-23.352,27.011-48.307,40.83-72.298
			c6.023-10.457,10.019-22.131,14.342-33.479c0.89-2.335-0.86-5.675-1.394-8.552c-2.883,0.628-6.636,0.327-8.486,2.059
			c-5.447,5.097-10.957,10.471-14.978,16.685c-13.545,20.927-27.544,41.648-37.678,64.563
			c-7.877,17.811-16.524,35.446-19.306,54.982c-1.846,12.969-11.263,19.102-21.032,24.847c-2.113,1.243-6.625,0.516-8.762-1.045
			c-1.774-1.296-2.616-5.288-2.237-7.843c1.036-6.981,4.51-12.812,10.624-16.782c1.15-0.747,2.239-1.587,3.502-2.489
			c-4.205-2.049-8.19-3.398-11.447-5.754c-2.94-2.127-5.133-2.161-7.397,0.29c-3.823,4.137-7.212,8.725-11.357,12.492
			c-1.725,1.568-4.94,2.017-7.442,1.93c-0.891-0.03-1.674-3.148-2.507-4.857c-5.48-4.751-8.712-4.074-12.391,2.495
			c-1.865,3.33-3.279,6.914-5.163,10.232c-2.69,4.738-10.054,6.45-14.6,3.59c-4.932-3.103-7.252-8.752-5.23-14.188
			c1.961-5.272,4.645-10.273,6.702-15.515c0.555-1.416-0.016-3.272-0.069-4.926c-1.379,0.664-2.966,1.089-4.083,2.057
			c-1.226,1.063-2.163,2.545-2.976,3.985c-8.017,14.203-15.866,28.501-24.033,42.616c-2.387,4.125-5.439,7.926-8.602,11.508
			c-1.09,1.235-3.845,2.283-5.104,1.734c-1.302-0.568-2.613-3.331-2.358-4.877c1.229-7.463,1.912-15.291,4.795-22.146
			c4.88-11.607,10.87-22.807,17.13-33.757c6.685-11.692,14.34-22.827,21.355-34.336c5.885-9.654,11.662-19.387,17.108-29.292
			c4.551-8.278,8.654-16.809,12.774-25.315c5-10.326,9.878-20.714,14.612-31.164c0.539-1.189-0.186-2.951-0.325-4.447
			c-1.355,0.625-3.041,0.934-3.998,1.938c-2.17,2.277-4.286,4.715-5.884,7.408c-6.615,11.14-13.433,22.188-19.436,33.658
			c-13.547,25.882-26.705,51.969-39.901,78.034c-2.77,5.472-4.188,11.797-7.671,16.707c-11.055,15.588-21.172,31.963-35.338,45.143
			c-4.644,4.32-9.329,8.061-16.275,7.844c-4.413-0.139-6.585-2.389-7.052-6.18c-0.689-5.592-1.607-11.35-0.983-16.873
			c1.973-17.46,7.355-34.094,14.13-50.231c3.637-8.664,7.985-17.03,12.027-25.523c2.573-5.407,4.788-11.029,7.835-16.155
			c8.735-14.694,17.419-29.448,26.915-43.65c5.13-7.674,11.876-14.269,17.894-21.35c0.464,0.355,0.929,0.71,1.394,1.065
			c-4.083,15.042-11.914,28.107-22.363,39.789c0.337,0.388,0.674,0.775,1.011,1.162c1.244-0.565,2.851-0.81,3.676-1.744
			 M433.633,365.442c7.873-22,17.969-43.082,30.482-62.751c9.745-15.319,17.151-32.534,31.987-44.174
			c1.814-1.424,4.546-1.678,6.853-2.475c0.26,2.483,1.432,5.33,0.613,7.381c-2.702,6.766-5.97,13.324-9.298,19.819
			c-9.707,18.939-19.442,37.865-29.367,56.69c-10.497,19.909-23.5,38.108-37.976,55.264c-0.615-0.251-1.23-0.502-1.846-0.754
			C427.899,384.765,430.243,374.916,433.633,365.442z M373.525,256.651c-16.393,36.357-36.65,70.612-57.573,105.575
			C316.689,350.03,364.357,262.4,373.525,256.651z M478.127,437.977c0.541-8.804,18.696-34.342,32.303-45.069
			C502.96,415.057,490.587,432.159,478.127,437.977z"/>
		<path d="M997.436,368.211c-15.229-2.184-29.096,2.258-42.565,8.721l-0.401-1.33c6.194-2.684,12.388-5.367,18.581-8.05
			c-8.536,0.73-15.587,4.96-22.941,8.649c-10.034,5.033-17.924,14.049-29.641,15.938c-0.515,0.083-0.868,0.949-1.407,1.143
			c-1.913,0.687-4.383,2.292-5.721,1.644c-3.788-1.833-7.719-4.061-10.512-7.122c-6.582-7.212-9.99-7.653-17.205-1.631
			c-2.869,2.395-6.484,3.897-11.064,6.565c-0.426-4.781-0.703-7.893-1.095-12.284c-1.772-0.117-4.933-1.317-6.835-0.257
			c-5.046,2.811-10.309,5.924-14.071,10.17c-4.474,5.049-8.806,8.529-16.599,6.893c0.512-2.315,0.555-4.893,1.627-6.928
			c3.567-6.766,7.193-13.544,11.425-19.9c2.31-3.47,5.673-6.355,8.943-9.04c3.949-3.242,4.774-6.496,1.462-9.892
			c-9.643,13.798-25.009,18.651-39.359,25.572c-0.197-2.554,0.641-4.623,0.523-6.635c-0.111-1.927-1.383-3.757-1.855-5.699
			c-1.307-5.373-11.952-15.57-17.35-15.672c-12.366-0.234-24.867-3.541-37.077,1.277c-1.241,0.49-2.647,0.558-3.978,0.822
			c5.475-4.196,11.742-6.941,16.874-11.091c9.63-7.789,20.825-13.882,27.95-24.547c0.547-0.819,1.324-1.492,2.031-2.196
			c6.298-6.268,11.309-13.197,11.531-22.561c0.098-4.146-2.037-6.386-6.229-5.343c-9.6,2.39-19.395,4.523-28.509,8.237
			c-19.802,8.069-37.94,19.354-55.673,31.228c-4.789,3.207-9.271,6.87-13.895,10.323c0.3,0.437,0.6,0.874,0.9,1.311
			c1.322-0.546,2.772-0.897,3.945-1.669c8.467-5.57,16.694-11.526,25.352-16.777c10.328-6.265,20.799-12.375,31.618-17.724
			c6.396-3.162,13.565-4.788,20.428-6.974c3.562-1.134,7.165-2.272,10.837-2.879c1.867-0.309,3.536-0.268,4.343,0.522
			c1.896,1.118,2.94,3.433,2.325,5.635c-0.482,1.728-1.337,3.422-2.447,4.932c-0.038,0.282-0.111,0.54-0.258,0.745
			c-5.68,7.961-10.891,16.215-18.784,22.495c-9.861,7.846-19.486,15.863-31.867,20.272c2.601-4.694,5.375-8.935,7.366-13.517
			c1.98-4.56,3.159-9.467,4.715-14.214c3.813-11.629,3.819-11.627,2.707-13.727c-3.086,6.949-6.444,14.079-9.443,21.357
			c-6.455,15.664-12.758,31.392-19.036,47.128c-0.895,2.242-1.31,4.675-1.947,7.02c3.913-6.998,6.963-14.17,10.204-21.255
			c0.618-1.352,1.948-3.328,3.023-3.375c13.038-0.585,26.166-1.887,39.116-0.929c12.763,0.944,19.721,10.711,19.151,23.644
			c-0.059,1.337-0.553,3.189-1.508,3.86c-3.687,2.588-6.74,5.822-10.716,8.282c-11.106,6.873-21.155,15.437-31.765,23.137
			c-7.755,5.63-15.802,10.857-23.586,16.449c-3.894,2.796-7.504,5.987-11.214,9.036c-1.921,1.579-3.632,3.453-5.685,4.823
			c-20.195,13.472-33.719,32.308-43.471,54.123c-0.908,2.034-0.536,4.642-0.896,8.421c4.962-2.174,8.677-3.496,12.093-5.362
			c7.874-4.3,15.613-8.847,23.388-13.327c9.688-5.584,20.166-9.867,28.617-17.486c2.452-2.212,5.014-4.305,7.536-6.439
			c5.719-4.84,11.558-9.55,17.121-14.563c2.693-2.427,4.988-5.327,7.271-8.169c6.534-8.131,13.342-16.081,19.318-24.61
			c4.176-5.961,6.854-12.952,10.768-19.124c3.668-5.784,4.558-13.611,12.391-16.537c2.962-1.106,5.303-3.802,8.037-5.606
			c2.96-1.953,6.049-3.712,9.081-5.555c0.337,0.346,0.675,0.692,1.013,1.038c-1.168,2.088-2.536,4.091-3.464,6.28
			c-2.453,5.789-5.247,11.513-6.897,17.539c-1.525,5.567,1.967,8.778,7.434,7.272c4.541-1.251,8.862-3.304,13.704-5.164
			c0.059,0.043,0.109,0.079,0.167,0.121c0.188-0.171,0.378-0.341,0.588-0.493c0.669-0.485,1.379-0.904,2.071-1.351
			c0.391-0.458,0.764-0.903,1.124-1.335c0.002-0.005,0.009-0.016,0.011-0.021c0.282-0.644,0.733-1.156,1.281-1.544
			c1.857-2.263,3.401-4.169,5.141-5.862c2.647-2.576,4.397-2.412,5.084,1.901c1.085,6.813,2.8,7.801,9.517,6.102
			c1.856-0.47,3.662-1.49,5.256-2.596c7.68-5.329,10.694-4.991,16.549,2.093c5.269,6.375,12.382,7.903,19.056,4.446
			c3.965-2.054,8.184-3.617,11.62-5.11c-0.209-0.092-0.563-0.25-0.874-0.387c4.449-3.452,8.848-6.865,13.874-10.764
			c-0.212,1.722-0.299,2.429-0.468,3.801C961.67,375.172,978.456,368.187,997.436,368.211z M762.836,456.261
			c-21.051,18.952-46.032,32.089-71.692,44.073c2.653-7.357,4.009-14.791,10.175-20.021c3.021-2.561,4.218-7.209,7.136-9.964
			c12.507-11.805,24.445-24.511,38.321-34.48c13.428-9.648,25.523-20.844,38.908-30.408c8.982-6.419,18.604-11.943,28.346-17.449
			C801.568,414.288,784.229,437.001,762.836,456.261z"/>
		<path fill-rule="evenodd" clip-rule="evenodd" fill="#FFFFFF" d="M425.081,394.443c2.818-9.678,5.162-19.527,8.552-29
			c7.873-22,17.969-43.082,30.482-62.751c9.745-15.319,17.151-32.534,31.987-44.174c1.814-1.424,4.546-1.678,6.853-2.475
			c0.26,2.483,1.432,5.33,0.613,7.381c-2.702,6.766-5.97,13.324-9.298,19.819c-9.707,18.939-19.442,37.865-29.367,56.69
			c-10.497,19.909-23.5,38.108-37.976,55.264C426.312,394.945,425.696,394.694,425.081,394.443z"/>
		<path fill-rule="evenodd" clip-rule="evenodd" fill="#FFFFFF" d="M373.525,256.651c-16.393,36.357-36.65,70.612-57.573,105.575
			C316.689,350.03,364.357,262.4,373.525,256.651z"/>
		<path fill-rule="evenodd" clip-rule="evenodd" fill="#FFFFFF" d="M510.43,392.908c-7.47,22.149-19.843,39.251-32.303,45.069
			C478.667,429.173,496.823,403.635,510.43,392.908z"/>
		<path fill-rule="evenodd" clip-rule="evenodd" fill="#FFFFFF" d="M691.144,500.334c2.653-7.357,4.009-14.791,10.175-20.021
			c3.021-2.561,4.218-7.209,7.136-9.964c12.507-11.805,24.445-24.511,38.321-34.48c13.428-9.648,25.523-20.844,38.908-30.408
			c8.982-6.419,18.604-11.943,28.346-17.449c-12.461,26.276-29.801,48.989-51.193,68.249
			C741.785,475.213,716.804,488.35,691.144,500.334z"/>
	</g>
</g>
<g id="Layer_2" display="none">
	<path display="inline" d="M502.182,415.004c0.079-0.338,0.165-0.675,0.245-1.013c-0.648,1.71-1.294,3.421-1.937,5.133
		c0.514-1.038,1.03-2.075,1.541-3.115C502.054,415.687,502.101,415.353,502.182,415.004z"/>
	<path display="inline" d="M1000.92,361.555c-9.34,2.335-18.92,4.57-27.938,7.963c-10.195,3.836-20.032,8.804-29.987,13.216
		c-8.735,3.871-18.135,8.48-27.958,7.639c-6.64-0.569-16.829-3.096-19.757-9.795c-0.242-0.555-1.132-0.92-1.693-0.689
		c-4.199,1.727-6.104,5.311-9.266,8.321c-2.461,2.342-8.728,2.632-9.806-1.274c-0.691-2.503,0.614-5.788,1.249-8.202
		c0.155-0.589-0.077-1.432-0.689-1.694c-6.922-2.966-12.417-0.444-17.176,4.952c-4.918,5.576-8.993,15.571-17.228,16.637
		c-10.035,1.298-3.52-11.833-1.364-16.13c2.805-5.593,6.242-10.823,9.65-16.058c0.456-0.202,0.908-0.411,1.367-0.61
		c4.397-1.914,17.202-7.602,13.033-14.719c-3.968-6.774-13.585,8.465-14.773,10.357c-0.556,0.884-1.116,1.764-1.679,2.643
		c-9.382,4.282-18.361,8.955-27.141,14.383c0.103-7.093-1.595-14.299-4.839-20.482c-4.533-8.642-13.653-12.479-22.654-14.836
		c-5.499-1.439-11.25-1.92-16.915-1.92c-2.711,0-5.126,0.583-7.473,1.332c13.13-8.108,27.035-15.583,36.915-27.513
		c3.86-4.661,7.417-9.625,10.344-14.926c2.134-3.864,4.664-9.039,3.215-13.539c-1.422-4.416-6.953-4.509-10.706-4.109
		c-10.569,1.128-20.58,5.868-29.854,10.792c-10.353,5.496-20.457,11.708-30.17,18.262c-10.448,7.051-20.583,14.548-31.733,20.484
		c-1.708,0.91-0.192,3.499,1.514,2.591c18.029-9.599,34.173-22.519,51.731-32.963c1.412-0.839,2.831-1.667,4.256-2.486
		c-4.042,16.007-9.758,31.458-16.018,46.7c-0.404,0.369-0.568,0.82-0.518,1.253c-2.516,6.093-5.11,12.156-7.718,18.208
		c-9.273,21.524-17.921,43.295-26.931,64.928c-0.744,1.785,2.16,2.556,2.893,0.797c9.146-21.96,17.944-44.054,27.357-65.904
		c2.419-5.614,4.824-11.24,7.161-16.893c2.876-0.617,5.487-1.886,8.234-2.963c3.387-1.328,7.287-1.097,10.859-1.01
		c8.135,0.197,16.297,2.159,23.611,5.705c11.035,5.351,14.594,18.097,14.352,29.528c-0.007,0.313-0.04,0.624-0.057,0.936
		c-12.24,7.87-23.495,17.183-34.968,26.108c-12.237,9.521-24.358,19.193-36.191,29.215c-11.798,9.992-23.111,20.477-34.101,31.348
		c-5.156,5.102-10.119,10.32-14.939,15.739c-3.249,3.653-6.951,7.562-6.735,12.775c0.346,8.346,18.654-0.616,21.434-1.77
		c12.669-5.256,24.253-12.904,34.946-21.423c20.398-16.249,40.367-33.709,55.924-54.779c6.824-9.243,14.541-20.163,16.946-31.589
		c0.272-1.295,0.471-2.61,0.609-3.935c7.88-5.052,15.982-9.474,24.396-13.428c-2.38,3.724-4.711,7.474-6.785,11.398
		c-2.584,4.89-6.497,12.026-4.531,17.729c1.883,5.463,9.711,4.163,13.564,2.026c8.938-4.958,14.028-24.741,26.339-20.635
		c-1.286,5.022-2.345,10.822,3.472,13.128c8.801,3.488,11.394-5.714,17.313-9.067c3.124,5.321,10.155,7.652,15.783,9.063
		c8.792,2.205,17.07,0.418,25.433-2.756c11.104-4.216,21.798-9.649,32.675-14.413c11.088-4.857,22.79-7.822,34.51-10.753
		C1003.593,363.978,1002.797,361.085,1000.92,361.555z M795.771,288.421c3.708-1.334,17.869-6.683,19.857-0.511
		c1.325,4.118-2.512,9.854-4.475,13.171c-2.876,4.861-6.34,9.399-10.002,13.69c-10.415,12.204-25.839,19.489-39.332,28.119
		c5.726-14.2,10.903-28.606,14.62-43.49c0.181-0.724-0.14-1.284-0.627-1.595C782.236,294.205,788.828,290.919,795.771,288.421z
		 M801.253,413.583c-7.719,11.11-16.989,21.068-26.759,30.388c-20.566,19.621-43.526,39.84-70.646,49.519
		c-2.441,0.871-4.949,1.608-7.451,2.286c-5.45,1.474-3.242-3.853-1.357-6.624c4.308-6.332,10.438-11.91,15.829-17.298
		c10.927-10.919,22.176-21.447,33.885-31.524c11.757-10.118,23.887-19.797,36.102-29.353c11.604-9.078,23.077-18.423,35.335-26.612
		C814.293,395.061,807.271,404.92,801.253,413.583z M855.924,356.034c0.47-0.517,4.807-4.363,4.984-2.585
		c0.383,3.843-5.041,6.684-9.106,8.492C853.053,359.875,854.322,357.794,855.924,356.034z"/>
	<path display="inline" d="M716.015,235.124c-8.921-7.214-23.38-5.91-33.733-3.654c-27.964,6.092-49.628,25.943-71.515,42.986
		c-12.413,9.665-24.959,19.154-36.834,29.485c-1.462,1.272,0.669,3.385,2.121,2.121c11.874-10.329,24.411-19.836,36.834-29.485
		c12.206-9.48,23.928-19.656,37.01-27.94c12.239-7.75,26.391-13.895,40.865-15.58c7.076-0.823,14.287-0.021,20.807,2.906
		c8.339,3.744,5.046,11.113,2.206,17.483c-6.143,13.777-12.964,26.543-22.767,38.108c-9.603,11.329-20.753,21.482-31.73,31.451
		c-11.583,10.519-23.91,19.805-37.09,28.219c-12.168,7.768-24.108,15.868-34.907,25.485c-0.387,0.353-0.773,0.705-1.159,1.057
		c3.896-7.468,7.72-14.975,11.333-22.608c7.231-15.281,14.374-30.916,20.301-46.753c5.246-14.019,8.792-29.533,18.964-41.01
		c1.278-1.442-0.835-3.572-2.121-2.121c-9.173,10.35-13.289,23.888-17.73,36.708c-5.69,16.428-13.146,32.417-20.396,48.209
		c-7.67,16.707-16.363,32.842-25.014,49.052c-7.004,13.125-12.017,27.708-20.732,39.862c-0.784-0.466-1.933-0.31-2.182,0.83
		c-0.277,1.269-0.346,1.772-0.387,3.065c-0.038,1.22,1.729,2.107,2.561,1.061c9.512-11.967,14.594-26.53,21.568-39.971
		c4.362-8.407,8.826-16.74,13.207-25.117c0.026,0.886,0.9,1.736,1.897,1.474c0.928-0.244,1.273-0.441,1.995-1.052
		c0.337-0.285,0.479-0.614,0.492-0.939c10.936-9.669,23.04-17.757,35.331-25.604c12.38-7.903,23.88-16.742,34.844-26.514
		c11.097-9.891,22.054-20.189,31.915-31.323c9.577-10.813,16.567-22.922,22.586-35.991
		C717.949,251.652,723.994,241.577,716.015,235.124z"/>
	<g display="inline">
		<g>
			<path d="M312.645,407.233c3.851-5.354,3.921-12.129,5.997-18.196c1.28-3.741,3.17-7.299,5.709-10.332
				c1.585-1.894,3.683-3.525,6.05-4.28c3.141,0.866,3.768,2.386,1.881,4.559c-0.489,0.856-0.948,1.728-1.379,2.615
				c-2.235,4.419-5.364,11.448-1.366,15.836c3.232,3.547,8.534,4.889,13.016,2.835c4.337-1.987,5.813-5.665,7.881-9.676
				c3.139-6.087,7.495-10.015,13.429-4.119c3.336,3.314,6.747,6.992,11.996,5.597c6.309-1.676,7.098-7.336,11.705-11.053
				c1.506-1.215-0.63-3.324-2.121-2.121c-4.942,3.987-8.232,15.185-16.419,8.543c-3.716-3.015-5.956-6.997-11.219-7.286
				c-11.543-0.633-8.767,19.744-21.641,17.889c-7.544-1.087-5.312-9.048-3.254-13.652c1.078-2.413,3.936-5.902,3.604-8.731
				c-0.501-4.281-4.313-4.957-7.962-3.794c-5.689,1.813-9.438,8.454-11.652,13.5c-2.867,6.537-2.615,14.473-6.843,20.351
				C308.922,407.293,311.526,408.789,312.645,407.233L312.645,407.233z"/>
		</g>
	</g>
	<g display="inline">
		<g>
			<path d="M291.709,397.413c-1.181,5.535-2.993,14.844,2.798,18.458c3.328,2.077,8.097-0.075,10.996-1.858
				c4.555-2.803,7.598-7.797,9.107-12.808c0.56-1.857-2.336-2.645-2.893-0.797c-1.169,3.88-3.221,7.118-6.204,9.858
				c-2.324,2.135-8.17,5.363-10.675,1.938c-2.587-3.538-1.068-10.092-0.236-13.992C295.004,396.324,292.112,395.521,291.709,397.413
				L291.709,397.413z"/>
		</g>
	</g>
	<g display="inline">
		<g>
			<path d="M300.726,300.727c1.853-1.679,2.812-4.205,4.513-6.1c2.145-2.388,4.282-4.778,6.356-7.228
				c4.246-5.016,7.885-10.429,10.512-16.464c1.686-3.873,2.174-7.159,0.438-11.066c-1.6-3.6-5.582-3.964-8.716-2.505
				c-4.559,2.122-7.463,7.533-10.23,11.442c-4.679,6.611-9.315,13.252-13.889,19.936c-8.561,12.513-16.796,25.245-24.542,38.279
				c-7.733,13.016-14.254,26.661-20.205,40.577c-5.477,12.809-10.431,26.014-12.668,39.819c-1.575,9.715-1.748,25.188,7.177,31.61
				c8.545,6.149,20.524,3.555,28.867-1.435c4.166-2.491,7.2-6.295,10.721-9.532c4.021-3.697,7.248-9.474,9.892-14.182
				c0.948-1.688-1.644-3.2-2.591-1.514c-5.375,9.571-13.185,19.751-23.244,24.643c-5.447,2.649-11.785,3.251-17.592,1.619
				c-7.932-2.229-10.064-10.643-10.835-17.912c-1.235-11.649,2.505-24.196,6.38-35.068c4.594-12.89,10.213-25.381,16.176-37.688
				c11.404-23.539,26.451-45.403,41.355-66.835c3.707-5.331,7.47-10.621,11.231-15.913c1.674-2.354,4.644-6.203,8.018-5.723
				c5.232,0.744,2.003,9.159,1.004,11.453c-2.501,5.745-6.39,10.802-10.409,15.55c-1.73,2.044-3.538,4.023-5.329,6.015
				c-1.507,1.676-2.918,4.654-4.513,6.1C297.168,299.908,299.297,302.023,300.726,300.727L300.726,300.727z"/>
		</g>
	</g>
	<g display="inline">
		<g>
			<path d="M388.242,382.295c5.321,3.149,11.024,4.799,17.024,6.151c0.133-0.982,0.266-1.964,0.399-2.946
				c-11.897-0.059-17.456,14.594-15.352,24.619c4.014,19.123,27.305-1.417,33.125-7.415c9.469-9.76,16.657-21.376,23.5-33.039
				c8.161-13.907,16.163-27.907,24.125-41.928c10.445-18.39,21.967-36.411,29.821-56.113c2.121-5.321,4.947-11.667,4.596-17.536
				c-0.274-4.576-4.371-4.245-7.451-2.451c-9.354,5.449-16.521,15.577-22.445,24.364c-7.624,11.308-13.797,23.665-20.399,35.581
				c-14.004,25.274-26.692,51.465-32.618,79.926c-1.742,8.368-2.805,18.494,2.822,25.667c4.436,5.655,12.467,4.682,18.313,2.267
				c10.469-4.326,17.841-13.25,23.947-22.415c7-10.504,13.446-23.814,25.44-29.399c-0.684-0.684-1.368-1.369-2.052-2.052
				c-2.348,3.1-5.567,6.914-5.8,10.998c-0.197,3.47,1.757,6.645,5.515,6.515c3.823-0.132,7.021-4.614,9.57-6.928
				c2.109-1.915,6.414-2.955,9.189-2.312c2.642,0.613,3.365,3.985,3.642,6.238c1.334,10.865-4.299,21.996-9.555,31.066
				c-6.074,10.482-15.167,22.871-27.665,25.733c0.615,0.349,1.23,0.698,1.845,1.048c-3.891-16.678,11.676-34.544,21.88-45.812
				c11.486-12.684,25.282-25.517,40.764-33.161c1.734-0.857,0.214-3.444-1.515-2.591c-16.451,8.124-30.976,21.966-43.061,35.51
				c-10.553,11.827-24.959,29.716-20.962,46.85c0.191,0.821,1.073,1.225,1.845,1.048c11.245-2.575,19.45-12.221,25.752-21.274
				c6.315-9.073,12.009-19.883,13.4-30.984c0.898-7.174,0.271-17.778-9.49-16.786c-4.594,0.466-7.819,2.881-10.957,5.972
				c-0.926,0.913-1.883,1.75-2.942,2.511c-1.449,1.193-2.887,0.653-4.316-1.62c0.021-0.955,0.208-1.873,0.56-2.753
				c0.91-2.848,3.109-5.404,4.889-7.754c1.007-1.33-0.856-2.609-2.052-2.052c-9.175,4.272-15.146,13.08-20.547,21.273
				c-6.513,9.878-12.288,19.844-22.138,26.812c-6.929,4.902-18.121,8.922-22.967-0.648c-2.52-4.977-1.868-11.516-1.088-16.811
				c1.108-7.517,3.269-14.971,5.507-22.216c8.744-28.305,24.061-53.696,38.069-79.577c6.495-11.999,13.844-23.768,23.593-33.41
				c2.627-2.598,6.037-6.232,9.751-7.231c1.533-0.412,0.321,5.037,0.187,5.644c-2.901,13.145-9.79,25.55-16.363,37.147
				c-14.3,25.229-28.517,50.507-43.215,75.508c-6.369,10.833-13.416,21.188-22.192,30.234c-4.585,4.727-15.804,16.563-23.638,12.673
				c-4.907-2.436-3.964-10.498-2.833-14.706c1.516-5.64,5.636-11.26,11.964-11.229c1.672,0.008,2.072-2.569,0.399-2.946
				c-5.75-1.296-11.193-2.822-16.309-5.849C388.087,378.717,386.579,381.311,388.242,382.295L388.242,382.295z"/>
		</g>
	</g>
	<g display="inline">
		<g>
			<path d="M287.78,416.065c5.094-14.24,13.22-26.945,21.504-39.5c8.448-12.804,16.426-25.859,24.151-39.111
				c8.019-13.756,15.767-27.669,23.437-41.622c3.695-6.722,7.366-13.458,11.038-20.194c3.138-5.758,5.148-12.42,8.877-17.778
				c1.771-2.545,2.862-5.391,0.4-7.785c-2.49-2.421-6.278,0.532-8.158,2.185c-3.866,3.4-6.233,8.352-8.595,12.808
				c-3.724,7.028-7.819,13.864-11.637,20.844c-7.538,13.779-15.157,27.53-22.426,41.453c-7.245,13.877-13.174,28.315-19.709,42.525
				c-4.65,10.11-9.763,19.994-15.648,29.443c-1.026,1.647,1.571,3.152,2.591,1.515c16.148-25.932,26.2-55.121,40.672-81.978
				c7.437-13.801,14.882-27.613,22.558-41.282c3.447-6.139,6.677-12.478,10.399-18.451c1.42-2.279,3.236-4.341,5.38-5.964
				c1.661-1.258,3.072,0.663,2.179,2.257c-0.656,1.17-1.531,2.229-2.256,3.359c-1.701,2.652-2.55,6.029-3.903,8.894
				c-1.577,3.34-3.384,6.568-5.15,9.81c-3.672,6.735-7.351,13.467-11.05,20.187c-7.675,13.944-15.477,27.819-23.513,41.558
				c-7.696,13.157-15.781,26.013-24.157,38.745c-7.772,11.815-15.094,23.917-19.876,37.287
				C284.234,417.095,287.133,417.873,287.78,416.065L287.78,416.065z"/>
		</g>
	</g>
</g>
</svg>
